<svg width="708.7099853515625px" height="243.6800109863281px" xmlns="http://www.w3.org/2000/svg" viewBox="-104.35499267578126 -46.84000549316406 708.7099853515625 243.6800109863281" style="background: rgb(0, 0, 0);" preserveAspectRatio="xMidYMid"><defs><linearGradient id="editing-glowing-gradient" x1="0.8345653031794291" x2="0.16543469682057088" y1="0.12842758726130288" y2="0.8715724127386971"><stop offset="0" stop-color="#ffffff"></stop><stop offset="1" stop-color="#ffffff"></stop></linearGradient><filter id="editing-glowing" x="-100%" y="-100%" width="300%" height="300%"><feGaussianBlur in="SourceGraphic" result="blur" stdDeviation="11.5"></feGaussianBlur><feMerge><feMergeNode in="blur"></feMergeNode><feMergeNode in="SourceGraphic"></feMergeNode></feMerge></filter></defs><g filter="url(#editing-glowing)"><g transform="translate(-3.6949820518493652, 99.6400032043457)"><path d="M38.02-9.92L38.02-2.30L38.02-2.30Q38.02-0.77 37.31-0.06L37.31-0.06L37.31-0.06Q36.61 0.64 35.07 0.64L35.07 0.64L19.46 0.64L19.46 0.64Q11.07 0.64 7.07-2.75L7.07-2.75L7.07-2.75Q3.07-6.14 3.07-13.06L3.07-13.06L3.07-32.96L3.07-32.96Q3.07-39.94 7.07-43.33L7.07-43.33L7.07-43.33Q11.07-46.72 19.46-46.72L19.46-46.72L35.07-46.72L35.07-46.72Q36.61-46.72 37.31-46.02L37.31-46.02L37.31-46.02Q38.02-45.31 38.02-43.78L38.02-43.78L38.02-36.03L38.02-36.03Q38.02-34.50 37.31-33.79L37.31-33.79L37.31-33.79Q36.61-33.09 35.07-33.09L35.07-33.09L22.21-33.09L22.21-33.09Q20.61-33.09 19.78-32.48L19.78-32.48L19.78-32.48Q18.94-31.87 18.94-30.53L18.94-30.53L18.94-15.30L18.94-15.30Q18.94-13.95 19.78-13.41L19.78-13.41L19.78-13.41Q20.61-12.86 22.21-12.86L22.21-12.86L35.07-12.86L35.07-12.86Q36.61-12.86 37.31-12.16L37.31-12.16L37.31-12.16Q38.02-11.46 38.02-9.92L38.02-9.92ZM19.46 0L35.07 0L35.07 0Q36.29 0 36.83-0.54L36.83-0.54L36.83-0.54Q37.38-1.09 37.38-2.30L37.38-2.30L37.38-9.92L37.38-9.92Q37.38-11.14 36.83-11.68L36.83-11.68L36.83-11.68Q36.29-12.22 35.07-12.22L35.07-12.22L22.21-12.22L22.21-12.22Q20.22-12.22 19.26-12.96L19.26-12.96L19.26-12.96Q18.30-13.70 18.30-15.30L18.30-15.30L18.30-30.53L18.30-30.53Q18.30-32.13 19.26-32.93L19.26-32.93L19.26-32.93Q20.22-33.73 22.21-33.73L22.21-33.73L35.07-33.73L35.07-33.73Q36.29-33.73 36.83-34.27L36.83-34.27L36.83-34.27Q37.38-34.82 37.38-36.03L37.38-36.03L37.38-43.78L37.38-43.78Q37.38-44.99 36.83-45.54L36.83-45.54L36.83-45.54Q36.29-46.08 35.07-46.08L35.07-46.08L19.46-46.08L19.46-46.08Q11.46-46.08 7.58-42.85L7.58-42.85L7.58-42.85Q3.71-39.62 3.71-32.96L3.71-32.96L3.71-13.06L3.71-13.06Q3.71-6.40 7.58-3.20L7.58-3.20L7.58-3.20Q11.46 0 19.46 0L19.46 0ZM20.86-6.40L31.55-6.40L31.55-5.76L20.86-5.76L20.86-5.76Q14.66-5.76 12.64-7.68L12.64-7.68L12.64-7.68Q10.62-9.60 10.62-14.02L10.62-14.02L10.62-31.94L10.62-31.94Q10.62-36.48 12.67-38.40L12.67-38.40L12.67-38.40Q14.72-40.32 20.86-40.32L20.86-40.32L31.55-40.32L31.55-39.68L20.86-39.68L20.86-39.68Q15.23-39.68 13.25-37.92L13.25-37.92L13.25-37.92Q11.26-36.16 11.26-31.94L11.26-31.94L11.26-14.02L11.26-14.02Q11.26-9.86 13.18-8.13L13.18-8.13L13.18-8.13Q15.10-6.40 20.86-6.40L20.86-6.40ZM52.16-5.76L51.52-5.76L51.52-40.32L52.16-40.32L52.16-23.36L76.74-23.36L76.74-40.32L77.38-40.32L77.38-5.76L76.74-5.76L76.74-22.72L52.16-22.72L52.16-5.76ZM46.91 0L56.83 0L56.83 0Q58.05 0 58.59-0.54L58.59-0.54L58.59-0.54Q59.14-1.09 59.14-2.30L59.14-2.30L59.14-16.51L69.82-16.51L69.82-2.30L69.82-2.30Q69.82-1.09 70.37-0.54L70.37-0.54L70.37-0.54Q70.91 0 72.13 0L72.13 0L82.05 0L82.05 0Q83.26 0 83.81-0.54L83.81-0.54L83.81-0.54Q84.35-1.09 84.35-2.30L84.35-2.30L84.35-43.78L84.35-43.78Q84.35-44.99 83.81-45.54L83.81-45.54L83.81-45.54Q83.26-46.08 82.05-46.08L82.05-46.08L72.13-46.08L72.13-46.08Q70.91-46.08 70.37-45.54L70.37-45.54L70.37-45.54Q69.82-44.99 69.82-43.78L69.82-43.78L69.82-29.89L59.14-29.89L59.14-43.78L59.14-43.78Q59.14-44.99 58.59-45.54L58.59-45.54L58.59-45.54Q58.05-46.08 56.83-46.08L56.83-46.08L46.91-46.08L46.91-46.08Q45.70-46.08 45.15-45.54L45.15-45.54L45.15-45.54Q44.61-44.99 44.61-43.78L44.61-43.78L44.61-2.30L44.61-2.30Q44.61-1.09 45.15-0.54L45.15-0.54L45.15-0.54Q45.70 0 46.91 0L46.91 0ZM56.83 0.64L46.91 0.64L46.91 0.64Q45.38 0.64 44.67-0.06L44.67-0.06L44.67-0.06Q43.97-0.77 43.97-2.30L43.97-2.30L43.97-43.78L43.97-43.78Q43.97-45.31 44.67-46.02L44.67-46.02L44.67-46.02Q45.38-46.72 46.91-46.72L46.91-46.72L56.83-46.72L56.83-46.72Q58.37-46.72 59.07-46.02L59.07-46.02L59.07-46.02Q59.78-45.31 59.78-43.78L59.78-43.78L59.78-30.53L69.18-30.53L69.18-43.78L69.18-43.78Q69.18-45.31 69.89-46.02L69.89-46.02L69.89-46.02Q70.59-46.72 72.13-46.72L72.13-46.72L82.05-46.72L82.05-46.72Q83.58-46.72 84.29-46.02L84.29-46.02L84.29-46.02Q84.99-45.31 84.99-43.78L84.99-43.78L84.99-2.30L84.99-2.30Q84.99-0.77 84.29-0.06L84.29-0.06L84.29-0.06Q83.58 0.64 82.05 0.64L82.05 0.64L72.13 0.64L72.13 0.64Q70.59 0.64 69.89-0.06L69.89-0.06L69.89-0.06Q69.18-0.77 69.18-2.30L69.18-2.30L69.18-15.87L59.78-15.87L59.78-2.30L59.78-2.30Q59.78-0.77 59.07-0.06L59.07-0.06L59.07-0.06Q58.37 0.64 56.83 0.64L56.83 0.64ZM114.69-39.68L114.69-39.68L100.74-39.68L100.74-21.18L114.69-21.18L114.69-21.18Q118.66-21.18 120-23.10L120-23.10L120-23.10Q121.34-25.02 121.34-28.54L121.34-28.54L121.34-33.02L121.34-33.02Q121.34-35.97 119.71-37.82L119.71-37.82L119.71-37.82Q118.08-39.68 114.69-39.68ZM107.65-26.37L107.65-34.56L112.45-34.56L112.45-34.56Q114.11-34.56 114.69-33.70L114.69-33.70L114.69-33.70Q115.26-32.83 115.26-31.55L115.26-31.55L115.26-29.38L115.26-29.38Q115.26-28.10 114.69-27.23L114.69-27.23L114.69-27.23Q114.11-26.37 112.45-26.37L112.45-26.37L107.65-26.37ZM112.45-33.92L112.45-33.92L108.29-33.92L108.29-27.01L112.45-27.01L112.45-27.01Q113.79-27.01 114.21-27.68L114.21-27.68L114.21-27.68Q114.62-28.35 114.62-29.38L114.62-29.38L114.62-31.55L114.62-31.55Q114.62-32.58 114.21-33.25L114.21-33.25L114.21-33.25Q113.79-33.92 112.45-33.92ZM100.74-20.61L100.74-5.76L100.10-5.76L100.10-40.32L114.69-40.32L114.69-40.32Q118.40-40.32 120.19-38.24L120.19-38.24L120.19-38.24Q121.98-36.16 121.98-33.02L121.98-33.02L121.98-28.61L121.98-28.61Q121.98-25.66 121.22-23.78L121.22-23.78L121.22-23.78Q120.45-21.89 118.14-21.18L118.14-21.18L118.85-21.18L118.85-21.18Q122.75-21.18 124.67-19.42L124.67-19.42L124.67-19.42Q126.59-17.66 126.59-14.34L126.59-14.34L126.59-5.76L125.95-5.76L125.95-14.34L125.95-14.34Q125.95-17.47 124.22-19.04L124.22-19.04L124.22-19.04Q122.50-20.61 118.85-20.61L118.85-20.61L100.74-20.61ZM95.49 0L105.34 0L105.34 0Q106.56 0 107.10-0.54L107.10-0.54L107.10-0.54Q107.65-1.09 107.65-2.30L107.65-2.30L107.65-14.85L116.61-14.85L116.61-14.85Q117.95-14.85 118.50-14.18L118.50-14.18L118.50-14.18Q119.04-13.50 119.04-12.10L119.04-12.10L119.04-2.30L119.04-2.30Q119.04-1.09 119.58-0.54L119.58-0.54L119.58-0.54Q120.13 0 121.34 0L121.34 0L131.26 0L131.26 0Q132.48 0 133.02-0.54L133.02-0.54L133.02-0.54Q133.57-1.09 133.57-2.30L133.57-2.30L133.57-15.87L133.57-15.87Q133.57-19.90 131.42-22.34L131.42-22.34L131.42-22.34Q129.28-24.77 125.82-25.15L125.82-25.15L125.82-25.15Q127.81-25.98 128.61-27.87L128.61-27.87L128.61-27.87Q129.41-29.76 129.41-32.45L129.41-32.45L129.41-35.39L129.41-35.39Q129.41-40.13 126.69-43.10L126.69-43.10L126.69-43.10Q123.97-46.08 116.80-46.08L116.80-46.08L95.49-46.08L95.49-46.08Q94.27-46.08 93.73-45.54L93.73-45.54L93.73-45.54Q93.18-44.99 93.18-43.78L93.18-43.78L93.18-2.30L93.18-2.30Q93.18-1.09 93.73-0.54L93.73-0.54L93.73-0.54Q94.27 0 95.49 0L95.49 0ZM105.34 0.64L105.34 0.64L95.49 0.64L95.49 0.64Q93.95 0.64 93.25-0.06L93.25-0.06L93.25-0.06Q92.54-0.77 92.54-2.30L92.54-2.30L92.54-43.78L92.54-43.78Q92.54-45.31 93.25-46.02L93.25-46.02L93.25-46.02Q93.95-46.72 95.49-46.72L95.49-46.72L116.80-46.72L116.80-46.72Q124.42-46.72 127.23-43.55L127.23-43.55L127.23-43.55Q130.05-40.38 130.05-35.39L130.05-35.39L130.05-32.45L130.05-32.45Q130.05-30.08 129.47-28.32L129.47-28.32L129.47-28.32Q128.90-26.56 127.55-25.47L127.55-25.47L127.55-25.47Q130.56-24.64 132.38-22.14L132.38-22.14L132.38-22.14Q134.21-19.65 134.21-15.87L134.21-15.87L134.21-2.30L134.21-2.30Q134.21-0.77 133.50-0.06L133.50-0.06L133.50-0.06Q132.80 0.64 131.26 0.64L131.26 0.64L121.34 0.64L121.34 0.64Q119.81 0.64 119.10-0.06L119.10-0.06L119.10-0.06Q118.40-0.77 118.40-2.30L118.40-2.30L118.40-12.10L118.40-12.10Q118.40-13.12 118.02-13.66L118.02-13.66L118.02-13.66Q117.63-14.21 116.61-14.21L116.61-14.21L108.29-14.21L108.29-2.30L108.29-2.30Q108.29-0.77 107.58-0.06L107.58-0.06L107.58-0.06Q106.88 0.64 105.34 0.64ZM180.42-33.92L180.42-33.92L180.42-12.10L180.42-12.10Q180.42-9.09 179.58-6.56L179.58-6.56L179.58-6.56Q178.75-4.03 176.48-2.24L176.48-2.24L176.48-2.24Q174.21-0.45 170.21 0.58L170.21 0.58L170.21 0.58Q166.21 1.60 159.94 1.60L159.94 1.60L159.94 1.60Q153.66 1.60 149.66 0.58L149.66 0.58L149.66 0.58Q145.66-0.45 143.39-2.24L143.39-2.24L143.39-2.24Q141.12-4.03 140.26-6.56L140.26-6.56L140.26-6.56Q139.39-9.09 139.39-12.10L139.39-12.10L139.39-33.92L139.39-33.92Q139.39-36.93 140.26-39.46L140.26-39.46L140.26-39.46Q141.12-41.98 143.39-43.81L143.39-43.81L143.39-43.81Q145.66-45.63 149.66-46.66L149.66-46.66L149.66-46.66Q153.66-47.68 159.94-47.68L159.94-47.68L159.94-47.68Q166.21-47.68 170.21-46.66L170.21-46.66L170.21-46.66Q174.21-45.63 176.48-43.81L176.48-43.81L176.48-43.81Q178.75-41.98 179.58-39.46L179.58-39.46L179.58-39.46Q180.42-36.93 180.42-33.92ZM179.78-12.10L179.78-12.10L179.78-33.92L179.78-33.92Q179.78-36.86 178.91-39.26L178.91-39.26L178.91-39.26Q178.05-41.66 175.84-43.39L175.84-43.39L175.84-43.39Q173.63-45.12 169.76-46.08L169.76-46.08L169.76-46.08Q165.89-47.04 159.94-47.04L159.94-47.04L159.94-47.04Q153.98-47.04 150.08-46.08L150.08-46.08L150.08-46.08Q146.18-45.12 143.97-43.39L143.97-43.39L143.97-43.39Q141.76-41.66 140.90-39.26L140.90-39.26L140.90-39.26Q140.03-36.86 140.03-33.92L140.03-33.92L140.03-12.10L140.03-12.10Q140.03-9.15 140.90-6.75L140.90-6.75L140.90-6.75Q141.76-4.35 143.97-2.66L143.97-2.66L143.97-2.66Q146.18-0.96 150.08 0L150.08 0L150.08 0Q153.98 0.96 159.94 0.96L159.94 0.96L159.94 0.96Q165.89 0.96 169.76 0L169.76 0L169.76 0Q173.63-0.96 175.84-2.66L175.84-2.66L175.84-2.66Q178.05-4.35 178.91-6.75L178.91-6.75L178.91-6.75Q179.78-9.15 179.78-12.10ZM172.80-32.45L172.80-13.57L172.80-13.57Q172.80-9.73 170.05-7.33L170.05-7.33L170.05-7.33Q167.30-4.93 159.81-4.93L159.81-4.93L159.81-4.93Q152.32-4.93 149.63-7.33L149.63-7.33L149.63-7.33Q146.94-9.73 146.94-13.57L146.94-13.57L146.94-32.45L146.94-32.45Q146.94-36.29 149.63-38.69L149.63-38.69L149.63-38.69Q152.32-41.09 159.81-41.09L159.81-41.09L159.81-41.09Q167.30-41.09 170.05-38.69L170.05-38.69L170.05-38.69Q172.80-36.29 172.80-32.45L172.80-32.45ZM147.58-32.45L147.58-13.57L147.58-13.57Q147.58-9.98 150.14-7.78L150.14-7.78L150.14-7.78Q152.70-5.57 159.81-5.57L159.81-5.57L159.81-5.57Q166.91-5.57 169.54-7.78L169.54-7.78L169.54-7.78Q172.16-9.98 172.16-13.57L172.16-13.57L172.16-32.45L172.16-32.45Q172.16-36.03 169.54-38.24L169.54-38.24L169.54-38.24Q166.91-40.45 159.81-40.45L159.81-40.45L159.81-40.45Q152.70-40.45 150.14-38.24L150.14-38.24L150.14-38.24Q147.58-36.03 147.58-32.45L147.58-32.45ZM154.56-14.40L154.56-14.40L154.56-31.62L154.56-31.62Q154.56-32.83 155.52-33.70L155.52-33.70L155.52-33.70Q156.48-34.56 159.94-34.56L159.94-34.56L159.94-34.56Q163.39-34.56 164.35-33.70L164.35-33.70L164.35-33.70Q165.31-32.83 165.31-31.62L165.31-31.62L165.31-14.40L165.31-14.40Q165.31-13.12 164.35-12.26L164.35-12.26L164.35-12.26Q163.39-11.39 159.94-11.39L159.94-11.39L159.94-11.39Q156.48-11.39 155.52-12.26L155.52-12.26L155.52-12.26Q154.56-13.12 154.56-14.40ZM155.20-31.62L155.20-31.62L155.20-14.40L155.20-14.40Q155.20-13.25 156.19-12.64L156.19-12.64L156.19-12.64Q157.18-12.03 159.94-12.03L159.94-12.03L159.94-12.03Q162.69-12.03 163.68-12.64L163.68-12.64L163.68-12.64Q164.67-13.25 164.67-14.40L164.67-14.40L164.67-31.62L164.67-31.62Q164.67-32.70 163.68-33.31L163.68-33.31L163.68-33.31Q162.69-33.92 159.94-33.92L159.94-33.92L159.94-33.92Q157.25-33.92 156.22-33.31L156.22-33.31L156.22-33.31Q155.20-32.70 155.20-31.62ZM196.35-39.81L196.35-39.81L219.90-13.31L219.90-40.32L220.54-40.32L220.54-5.76L219.90-5.76L219.90-12.35L195.71-39.49L195.71-39.49Q195.65-39.55 195.55-39.62L195.55-39.62L195.55-39.62Q195.46-39.68 195.39-39.68L195.39-39.68L195.39-39.68Q195.33-39.68 195.30-39.62L195.30-39.62L195.30-39.62Q195.26-39.55 195.26-39.49L195.26-39.49L195.26-5.76L194.62-5.76L194.62-39.62L194.62-39.62Q194.62-40 194.88-40.19L194.88-40.19L194.88-40.19Q195.14-40.38 195.39-40.38L195.39-40.38L195.39-40.38Q195.65-40.38 195.84-40.26L195.84-40.26L195.84-40.26Q196.03-40.13 196.35-39.81ZM190.21 0L199.81 0L199.81 0Q201.02 0 201.57-0.54L201.57-0.54L201.57-0.54Q202.11-1.09 202.11-2.30L202.11-2.30L202.11-23.42L213.06-10.18L213.06-2.30L213.06-2.30Q213.06-1.09 213.60-0.54L213.60-0.54L213.60-0.54Q214.14 0 215.36 0L215.36 0L224.96 0L224.96 0Q226.18 0 226.72-0.54L226.72-0.54L226.72-0.54Q227.26-1.09 227.26-2.30L227.26-2.30L227.26-43.78L227.26-43.78Q227.26-44.99 226.72-45.54L226.72-45.54L226.72-45.54Q226.18-46.08 224.96-46.08L224.96-46.08L215.36-46.08L215.36-46.08Q214.14-46.08 213.60-45.54L213.60-45.54L213.60-45.54Q213.06-44.99 213.06-43.78L213.06-43.78L213.06-30.14L200.64-44.35L200.64-44.35Q199.81-45.31 198.94-45.70L198.94-45.70L198.94-45.70Q198.08-46.08 196.86-46.08L196.86-46.08L190.21-46.08L190.21-46.08Q188.99-46.08 188.45-45.54L188.45-45.54L188.45-45.54Q187.90-44.99 187.90-43.78L187.90-43.78L187.90-2.30L187.90-2.30Q187.90-1.09 188.45-0.54L188.45-0.54L188.45-0.54Q188.99 0 190.21 0L190.21 0ZM199.81 0.64L199.81 0.64L190.21 0.64L190.21 0.64Q188.67 0.64 187.97-0.06L187.97-0.06L187.97-0.06Q187.26-0.77 187.26-2.30L187.26-2.30L187.26-43.78L187.26-43.78Q187.26-45.31 187.97-46.02L187.97-46.02L187.97-46.02Q188.67-46.72 190.21-46.72L190.21-46.72L196.86-46.72L196.86-46.72Q198.27-46.72 199.23-46.27L199.23-46.27L199.23-46.27Q200.19-45.82 201.15-44.80L201.15-44.80L212.42-31.94L212.42-43.78L212.42-43.78Q212.42-45.31 213.12-46.02L213.12-46.02L213.12-46.02Q213.82-46.72 215.36-46.72L215.36-46.72L224.96-46.72L224.96-46.72Q226.50-46.72 227.20-46.02L227.20-46.02L227.20-46.02Q227.90-45.31 227.90-43.78L227.90-43.78L227.90-2.30L227.90-2.30Q227.90-0.77 227.20-0.06L227.20-0.06L227.20-0.06Q226.50 0.64 224.96 0.64L224.96 0.64L215.36 0.64L215.36 0.64Q213.82 0.64 213.12-0.06L213.12-0.06L213.12-0.06Q212.42-0.77 212.42-2.30L212.42-2.30L212.42-9.92L202.75-21.63L202.75-2.30L202.75-2.30Q202.75-0.77 202.05-0.06L202.05-0.06L202.05-0.06Q201.34 0.64 199.81 0.64ZM275.78-33.92L275.78-33.92L275.78-12.10L275.78-12.10Q275.78-9.09 274.94-6.56L274.94-6.56L274.94-6.56Q274.11-4.03 271.84-2.24L271.84-2.24L271.84-2.24Q269.57-0.45 265.57 0.58L265.57 0.58L265.57 0.58Q261.57 1.60 255.30 1.60L255.30 1.60L255.30 1.60Q249.02 1.60 245.02 0.58L245.02 0.58L245.02 0.58Q241.02-0.45 238.75-2.24L238.75-2.24L238.75-2.24Q236.48-4.03 235.62-6.56L235.62-6.56L235.62-6.56Q234.75-9.09 234.75-12.10L234.75-12.10L234.75-33.92L234.75-33.92Q234.75-36.93 235.62-39.46L235.62-39.46L235.62-39.46Q236.48-41.98 238.75-43.81L238.75-43.81L238.75-43.81Q241.02-45.63 245.02-46.66L245.02-46.66L245.02-46.66Q249.02-47.68 255.30-47.68L255.30-47.68L255.30-47.68Q261.57-47.68 265.57-46.66L265.57-46.66L265.57-46.66Q269.57-45.63 271.84-43.81L271.84-43.81L271.84-43.81Q274.11-41.98 274.94-39.46L274.94-39.46L274.94-39.46Q275.78-36.93 275.78-33.92ZM275.14-12.10L275.14-12.10L275.14-33.92L275.14-33.92Q275.14-36.86 274.27-39.26L274.27-39.26L274.27-39.26Q273.41-41.66 271.20-43.39L271.20-43.39L271.20-43.39Q268.99-45.12 265.12-46.08L265.12-46.08L265.12-46.08Q261.25-47.04 255.30-47.04L255.30-47.04L255.30-47.04Q249.34-47.04 245.44-46.08L245.44-46.08L245.44-46.08Q241.54-45.12 239.33-43.39L239.33-43.39L239.33-43.39Q237.12-41.66 236.26-39.26L236.26-39.26L236.26-39.26Q235.39-36.86 235.39-33.92L235.39-33.92L235.39-12.10L235.39-12.10Q235.39-9.15 236.26-6.75L236.26-6.75L236.26-6.75Q237.12-4.35 239.33-2.66L239.33-2.66L239.33-2.66Q241.54-0.96 245.44 0L245.44 0L245.44 0Q249.34 0.96 255.30 0.96L255.30 0.96L255.30 0.96Q261.25 0.96 265.12 0L265.12 0L265.12 0Q268.99-0.96 271.20-2.66L271.20-2.66L271.20-2.66Q273.41-4.35 274.27-6.75L274.27-6.75L274.27-6.75Q275.14-9.15 275.14-12.10ZM268.16-32.45L268.16-13.57L268.16-13.57Q268.16-9.73 265.41-7.33L265.41-7.33L265.41-7.33Q262.66-4.93 255.17-4.93L255.17-4.93L255.17-4.93Q247.68-4.93 244.99-7.33L244.99-7.33L244.99-7.33Q242.30-9.73 242.30-13.57L242.30-13.57L242.30-32.45L242.30-32.45Q242.30-36.29 244.99-38.69L244.99-38.69L244.99-38.69Q247.68-41.09 255.17-41.09L255.17-41.09L255.17-41.09Q262.66-41.09 265.41-38.69L265.41-38.69L265.41-38.69Q268.16-36.29 268.16-32.45L268.16-32.45ZM242.94-32.45L242.94-13.57L242.94-13.57Q242.94-9.98 245.50-7.78L245.50-7.78L245.50-7.78Q248.06-5.57 255.17-5.57L255.17-5.57L255.17-5.57Q262.27-5.57 264.90-7.78L264.90-7.78L264.90-7.78Q267.52-9.98 267.52-13.57L267.52-13.57L267.52-32.45L267.52-32.45Q267.52-36.03 264.90-38.24L264.90-38.24L264.90-38.24Q262.27-40.45 255.17-40.45L255.17-40.45L255.17-40.45Q248.06-40.45 245.50-38.24L245.50-38.24L245.50-38.24Q242.94-36.03 242.94-32.45L242.94-32.45ZM249.92-14.40L249.92-14.40L249.92-31.62L249.92-31.62Q249.92-32.83 250.88-33.70L250.88-33.70L250.88-33.70Q251.84-34.56 255.30-34.56L255.30-34.56L255.30-34.56Q258.75-34.56 259.71-33.70L259.71-33.70L259.71-33.70Q260.67-32.83 260.67-31.62L260.67-31.62L260.67-14.40L260.67-14.40Q260.67-13.12 259.71-12.26L259.71-12.26L259.71-12.26Q258.75-11.39 255.30-11.39L255.30-11.39L255.30-11.39Q251.84-11.39 250.88-12.26L250.88-12.26L250.88-12.26Q249.92-13.12 249.92-14.40ZM250.56-31.62L250.56-31.62L250.56-14.40L250.56-14.40Q250.56-13.25 251.55-12.64L251.55-12.64L251.55-12.64Q252.54-12.03 255.30-12.03L255.30-12.03L255.30-12.03Q258.05-12.03 259.04-12.64L259.04-12.64L259.04-12.64Q260.03-13.25 260.03-14.40L260.03-14.40L260.03-31.62L260.03-31.62Q260.03-32.70 259.04-33.31L259.04-33.31L259.04-33.31Q258.05-33.92 255.30-33.92L255.30-33.92L255.30-33.92Q252.61-33.92 251.58-33.31L251.58-33.31L251.58-33.31Q250.56-32.70 250.56-31.62ZM295.49 0.64L285.57 0.64L285.57 0.64Q284.03 0.64 283.33-0.06L283.33-0.06L283.33-0.06Q282.62-0.77 282.62-2.30L282.62-2.30L282.62-43.78L282.62-43.78Q282.62-45.31 283.33-46.02L283.33-46.02L283.33-46.02Q284.03-46.72 285.57-46.72L285.57-46.72L305.15-46.72L305.15-46.72Q309.70-46.72 312.77-45.76L312.77-45.76L312.77-45.76Q315.84-44.80 317.63-43.07L317.63-43.07L317.63-43.07Q319.42-41.34 320.16-38.91L320.16-38.91L320.16-38.91Q320.90-36.48 320.90-33.60L320.90-33.60L320.90-25.41L320.90-25.41Q320.90-22.53 320.16-20.10L320.16-20.10L320.16-20.10Q319.42-17.66 317.63-15.94L317.63-15.94L317.63-15.94Q315.84-14.21 312.77-13.25L312.77-13.25L312.77-13.25Q309.70-12.29 305.15-12.29L305.15-12.29L298.43-12.29L298.43-2.30L298.43-2.30Q298.43-0.77 297.73-0.06L297.73-0.06L297.73-0.06Q297.02 0.64 295.49 0.64L295.49 0.64ZM285.57 0L295.49 0L295.49 0Q296.70 0 297.25-0.54L297.25-0.54L297.25-0.54Q297.79-1.09 297.79-2.30L297.79-2.30L297.79-12.93L305.15-12.93L305.15-12.93Q313.86-12.93 317.06-16.38L317.06-16.38L317.06-16.38Q320.26-19.84 320.26-25.41L320.26-25.41L320.26-33.60L320.26-33.60Q320.26-39.17 317.06-42.62L317.06-42.62L317.06-42.62Q313.86-46.08 305.15-46.08L305.15-46.08L285.57-46.08L285.57-46.08Q284.35-46.08 283.81-45.54L283.81-45.54L283.81-45.54Q283.26-44.99 283.26-43.78L283.26-43.78L283.26-2.30L283.26-2.30Q283.26-1.09 283.81-0.54L283.81-0.54L283.81-0.54Q284.35 0 285.57 0L285.57 0ZM304.26-18.37L304.26-18.37L291.07-18.37L291.07-5.76L290.43-5.76L290.43-40.32L304.26-40.32L304.26-40.32Q307.26-40.32 309.15-39.65L309.15-39.65L309.15-39.65Q311.04-38.98 312.06-37.82L312.06-37.82L312.06-37.82Q313.09-36.67 313.47-35.07L313.47-35.07L313.47-35.07Q313.86-33.47 313.86-31.62L313.86-31.62L313.86-26.88L313.86-26.88Q313.86-25.02 313.47-23.46L313.47-23.46L313.47-23.46Q313.09-21.89 312.06-20.77L312.06-20.77L312.06-20.77Q311.04-19.65 309.15-19.01L309.15-19.01L309.15-19.01Q307.26-18.37 304.26-18.37ZM291.07-39.68L291.07-19.01L304.26-19.01L304.26-19.01Q307.07-19.01 308.83-19.58L308.83-19.58L308.83-19.58Q310.59-20.16 311.55-21.22L311.55-21.22L311.55-21.22Q312.51-22.27 312.86-23.71L312.86-23.71L312.86-23.71Q313.22-25.15 313.22-26.88L313.22-26.88L313.22-31.62L313.22-31.62Q313.22-33.34 312.86-34.82L312.86-34.82L312.86-34.82Q312.51-36.29 311.55-37.38L311.55-37.38L311.55-37.38Q310.59-38.46 308.83-39.07L308.83-39.07L308.83-39.07Q307.07-39.68 304.26-39.68L304.26-39.68L291.07-39.68ZM297.66-24.45L297.66-34.11L303.42-34.11L303.42-34.11Q305.28-34.11 305.86-33.15L305.86-33.15L305.86-33.15Q306.43-32.19 306.43-30.98L306.43-30.98L306.43-27.58L306.43-27.58Q306.43-26.37 305.86-25.41L305.86-25.41L305.86-25.41Q305.28-24.45 303.42-24.45L303.42-24.45L297.66-24.45ZM303.42-33.47L303.42-33.47L298.30-33.47L298.30-25.09L303.42-25.09L303.42-25.09Q304.90-25.09 305.34-25.86L305.34-25.86L305.34-25.86Q305.79-26.62 305.79-27.58L305.79-27.58L305.79-30.98L305.79-30.98Q305.79-31.94 305.34-32.70L305.34-32.70L305.34-32.70Q304.90-33.47 303.42-33.47ZM334.46-5.76L333.82-5.76L333.82-40.32L334.46-40.32L334.46-23.36L359.04-23.36L359.04-40.32L359.68-40.32L359.68-5.76L359.04-5.76L359.04-22.72L334.46-22.72L334.46-5.76ZM329.22 0L339.14 0L339.14 0Q340.35 0 340.90-0.54L340.90-0.54L340.90-0.54Q341.44-1.09 341.44-2.30L341.44-2.30L341.44-16.51L352.13-16.51L352.13-2.30L352.13-2.30Q352.13-1.09 352.67-0.54L352.67-0.54L352.67-0.54Q353.22 0 354.43 0L354.43 0L364.35 0L364.35 0Q365.57 0 366.11-0.54L366.11-0.54L366.11-0.54Q366.66-1.09 366.66-2.30L366.66-2.30L366.66-43.78L366.66-43.78Q366.66-44.99 366.11-45.54L366.11-45.54L366.11-45.54Q365.57-46.08 364.35-46.08L364.35-46.08L354.43-46.08L354.43-46.08Q353.22-46.08 352.67-45.54L352.67-45.54L352.67-45.54Q352.13-44.99 352.13-43.78L352.13-43.78L352.13-29.89L341.44-29.89L341.44-43.78L341.44-43.78Q341.44-44.99 340.90-45.54L340.90-45.54L340.90-45.54Q340.35-46.08 339.14-46.08L339.14-46.08L329.22-46.08L329.22-46.08Q328.00-46.08 327.46-45.54L327.46-45.54L327.46-45.54Q326.91-44.99 326.91-43.78L326.91-43.78L326.91-2.30L326.91-2.30Q326.91-1.09 327.46-0.54L327.46-0.54L327.46-0.54Q328.00 0 329.22 0L329.22 0ZM339.14 0.64L329.22 0.64L329.22 0.64Q327.68 0.64 326.98-0.06L326.98-0.06L326.98-0.06Q326.27-0.77 326.27-2.30L326.27-2.30L326.27-43.78L326.27-43.78Q326.27-45.31 326.98-46.02L326.98-46.02L326.98-46.02Q327.68-46.72 329.22-46.72L329.22-46.72L339.14-46.72L339.14-46.72Q340.67-46.72 341.38-46.02L341.38-46.02L341.38-46.02Q342.08-45.31 342.08-43.78L342.08-43.78L342.08-30.53L351.49-30.53L351.49-43.78L351.49-43.78Q351.49-45.31 352.19-46.02L352.19-46.02L352.19-46.02Q352.90-46.72 354.43-46.72L354.43-46.72L364.35-46.72L364.35-46.72Q365.89-46.72 366.59-46.02L366.59-46.02L366.59-46.02Q367.30-45.31 367.30-43.78L367.30-43.78L367.30-2.30L367.30-2.30Q367.30-0.77 366.59-0.06L366.59-0.06L366.59-0.06Q365.89 0.64 364.35 0.64L364.35 0.64L354.43 0.64L354.43 0.64Q352.90 0.64 352.19-0.06L352.19-0.06L352.19-0.06Q351.49-0.77 351.49-2.30L351.49-2.30L351.49-15.87L342.08-15.87L342.08-2.30L342.08-2.30Q342.08-0.77 341.38-0.06L341.38-0.06L341.38-0.06Q340.67 0.64 339.14 0.64L339.14 0.64ZM415.17-33.92L415.17-33.92L415.17-12.10L415.17-12.10Q415.17-9.09 414.34-6.56L414.34-6.56L414.34-6.56Q413.50-4.03 411.23-2.24L411.23-2.24L411.23-2.24Q408.96-0.45 404.96 0.58L404.96 0.58L404.96 0.58Q400.96 1.60 394.69 1.60L394.69 1.60L394.69 1.60Q388.42 1.60 384.42 0.58L384.42 0.58L384.42 0.58Q380.42-0.45 378.14-2.24L378.14-2.24L378.14-2.24Q375.87-4.03 375.01-6.56L375.01-6.56L375.01-6.56Q374.14-9.09 374.14-12.10L374.14-12.10L374.14-33.92L374.14-33.92Q374.14-36.93 375.01-39.46L375.01-39.46L375.01-39.46Q375.87-41.98 378.14-43.81L378.14-43.81L378.14-43.81Q380.42-45.63 384.42-46.66L384.42-46.66L384.42-46.66Q388.42-47.68 394.69-47.68L394.69-47.68L394.69-47.68Q400.96-47.68 404.96-46.66L404.96-46.66L404.96-46.66Q408.96-45.63 411.23-43.81L411.23-43.81L411.23-43.81Q413.50-41.98 414.34-39.46L414.34-39.46L414.34-39.46Q415.17-36.93 415.17-33.92ZM414.53-12.10L414.53-12.10L414.53-33.92L414.53-33.92Q414.53-36.86 413.66-39.26L413.66-39.26L413.66-39.26Q412.80-41.66 410.59-43.39L410.59-43.39L410.59-43.39Q408.38-45.12 404.51-46.08L404.51-46.08L404.51-46.08Q400.64-47.04 394.69-47.04L394.69-47.04L394.69-47.04Q388.74-47.04 384.83-46.08L384.83-46.08L384.83-46.08Q380.93-45.12 378.72-43.39L378.72-43.39L378.72-43.39Q376.51-41.66 375.65-39.26L375.65-39.26L375.65-39.26Q374.78-36.86 374.78-33.92L374.78-33.92L374.78-12.10L374.78-12.10Q374.78-9.15 375.65-6.75L375.65-6.75L375.65-6.75Q376.51-4.35 378.72-2.66L378.72-2.66L378.72-2.66Q380.93-0.96 384.83 0L384.83 0L384.83 0Q388.74 0.96 394.69 0.96L394.69 0.96L394.69 0.96Q400.64 0.96 404.51 0L404.51 0L404.51 0Q408.38-0.96 410.59-2.66L410.59-2.66L410.59-2.66Q412.80-4.35 413.66-6.75L413.66-6.75L413.66-6.75Q414.53-9.15 414.53-12.10ZM407.55-32.45L407.55-13.57L407.55-13.57Q407.55-9.73 404.80-7.33L404.80-7.33L404.80-7.33Q402.05-4.93 394.56-4.93L394.56-4.93L394.56-4.93Q387.07-4.93 384.38-7.33L384.38-7.33L384.38-7.33Q381.70-9.73 381.70-13.57L381.70-13.57L381.70-32.45L381.70-32.45Q381.70-36.29 384.38-38.69L384.38-38.69L384.38-38.69Q387.07-41.09 394.56-41.09L394.56-41.09L394.56-41.09Q402.05-41.09 404.80-38.69L404.80-38.69L404.80-38.69Q407.55-36.29 407.55-32.45L407.55-32.45ZM382.34-32.45L382.34-13.57L382.34-13.57Q382.34-9.98 384.90-7.78L384.90-7.78L384.90-7.78Q387.46-5.57 394.56-5.57L394.56-5.57L394.56-5.57Q401.66-5.57 404.29-7.78L404.29-7.78L404.29-7.78Q406.91-9.98 406.91-13.57L406.91-13.57L406.91-32.45L406.91-32.45Q406.91-36.03 404.29-38.24L404.29-38.24L404.29-38.24Q401.66-40.45 394.56-40.45L394.56-40.45L394.56-40.45Q387.46-40.45 384.90-38.24L384.90-38.24L384.90-38.24Q382.34-36.03 382.34-32.45L382.34-32.45ZM389.31-14.40L389.31-14.40L389.31-31.62L389.31-31.62Q389.31-32.83 390.27-33.70L390.27-33.70L390.27-33.70Q391.23-34.56 394.69-34.56L394.69-34.56L394.69-34.56Q398.14-34.56 399.10-33.70L399.10-33.70L399.10-33.70Q400.06-32.83 400.06-31.62L400.06-31.62L400.06-14.40L400.06-14.40Q400.06-13.12 399.10-12.26L399.10-12.26L399.10-12.26Q398.14-11.39 394.69-11.39L394.69-11.39L394.69-11.39Q391.23-11.39 390.27-12.26L390.27-12.26L390.27-12.26Q389.31-13.12 389.31-14.40ZM389.95-31.62L389.95-31.62L389.95-14.40L389.95-14.40Q389.95-13.25 390.94-12.64L390.94-12.64L390.94-12.64Q391.94-12.03 394.69-12.03L394.69-12.03L394.69-12.03Q397.44-12.03 398.43-12.64L398.43-12.64L398.43-12.64Q399.42-13.25 399.42-14.40L399.42-14.40L399.42-31.62L399.42-31.62Q399.42-32.70 398.43-33.31L398.43-33.31L398.43-33.31Q397.44-33.92 394.69-33.92L394.69-33.92L394.69-33.92Q392.00-33.92 390.98-33.31L390.98-33.31L390.98-33.31Q389.95-32.70 389.95-31.62ZM444.42 0.64L434.05 0.64L434.05 0.64Q432.51 0.64 431.81-0.06L431.81-0.06L431.81-0.06Q431.10-0.77 431.10-2.30L431.10-2.30L431.10-33.09L422.34-33.09L422.34-33.09Q420.80-33.09 420.10-33.79L420.10-33.79L420.10-33.79Q419.39-34.50 419.39-36.03L419.39-36.03L419.39-43.78L419.39-43.78Q419.39-45.31 420.10-46.02L420.10-46.02L420.10-46.02Q420.80-46.72 422.34-46.72L422.34-46.72L456.13-46.72L456.13-46.72Q457.66-46.72 458.37-46.02L458.37-46.02L458.37-46.02Q459.07-45.31 459.07-43.78L459.07-43.78L459.07-36.03L459.07-36.03Q459.07-34.50 458.37-33.79L458.37-33.79L458.37-33.79Q457.66-33.09 456.13-33.09L456.13-33.09L447.36-33.09L447.36-2.30L447.36-2.30Q447.36-0.77 446.66-0.06L446.66-0.06L446.66-0.06Q445.95 0.64 444.42 0.64L444.42 0.64ZM434.05 0L444.42 0L444.42 0Q445.63 0 446.18-0.54L446.18-0.54L446.18-0.54Q446.72-1.09 446.72-2.30L446.72-2.30L446.72-33.73L456.13-33.73L456.13-33.73Q457.34-33.73 457.89-34.27L457.89-34.27L457.89-34.27Q458.43-34.82 458.43-36.03L458.43-36.03L458.43-43.78L458.43-43.78Q458.43-44.99 457.89-45.54L457.89-45.54L457.89-45.54Q457.34-46.08 456.13-46.08L456.13-46.08L422.34-46.08L422.34-46.08Q421.12-46.08 420.58-45.54L420.58-45.54L420.58-45.54Q420.03-44.99 420.03-43.78L420.03-43.78L420.03-36.03L420.03-36.03Q420.03-34.82 420.58-34.27L420.58-34.27L420.58-34.27Q421.12-33.73 422.34-33.73L422.34-33.73L431.74-33.73L431.74-2.30L431.74-2.30Q431.74-1.09 432.29-0.54L432.29-0.54L432.29-0.54Q432.83 0 434.05 0L434.05 0ZM439.55-5.76L438.91-5.76L438.91-39.68L425.79-39.68L425.79-40.32L452.67-40.32L452.67-39.68L439.55-39.68L439.55-5.76ZM504.32-33.92L504.32-33.92L504.32-12.10L504.32-12.10Q504.32-9.09 503.49-6.56L503.49-6.56L503.49-6.56Q502.66-4.03 500.38-2.24L500.38-2.24L500.38-2.24Q498.11-0.45 494.11 0.58L494.11 0.58L494.11 0.58Q490.11 1.60 483.84 1.60L483.84 1.60L483.84 1.60Q477.57 1.60 473.57 0.58L473.57 0.58L473.57 0.58Q469.57-0.45 467.30-2.24L467.30-2.24L467.30-2.24Q465.02-4.03 464.16-6.56L464.16-6.56L464.16-6.56Q463.30-9.09 463.30-12.10L463.30-12.10L463.30-33.92L463.30-33.92Q463.30-36.93 464.16-39.46L464.16-39.46L464.16-39.46Q465.02-41.98 467.30-43.81L467.30-43.81L467.30-43.81Q469.57-45.63 473.57-46.66L473.57-46.66L473.57-46.66Q477.57-47.68 483.84-47.68L483.84-47.68L483.84-47.68Q490.11-47.68 494.11-46.66L494.11-46.66L494.11-46.66Q498.11-45.63 500.38-43.81L500.38-43.81L500.38-43.81Q502.66-41.98 503.49-39.46L503.49-39.46L503.49-39.46Q504.32-36.93 504.32-33.92ZM503.68-12.10L503.68-12.10L503.68-33.92L503.68-33.92Q503.68-36.86 502.82-39.26L502.82-39.26L502.82-39.26Q501.95-41.66 499.74-43.39L499.74-43.39L499.74-43.39Q497.54-45.12 493.66-46.08L493.66-46.08L493.66-46.08Q489.79-47.04 483.84-47.04L483.84-47.04L483.84-47.04Q477.89-47.04 473.98-46.08L473.98-46.08L473.98-46.08Q470.08-45.12 467.87-43.39L467.87-43.39L467.87-43.39Q465.66-41.66 464.80-39.26L464.80-39.26L464.80-39.26Q463.94-36.86 463.94-33.92L463.94-33.92L463.94-12.10L463.94-12.10Q463.94-9.15 464.80-6.75L464.80-6.75L464.80-6.75Q465.66-4.35 467.87-2.66L467.87-2.66L467.87-2.66Q470.08-0.96 473.98 0L473.98 0L473.98 0Q477.89 0.96 483.84 0.96L483.84 0.96L483.84 0.96Q489.79 0.96 493.66 0L493.66 0L493.66 0Q497.54-0.96 499.74-2.66L499.74-2.66L499.74-2.66Q501.95-4.35 502.82-6.75L502.82-6.75L502.82-6.75Q503.68-9.15 503.68-12.10ZM496.70-32.45L496.70-13.57L496.70-13.57Q496.70-9.73 493.95-7.33L493.95-7.33L493.95-7.33Q491.20-4.93 483.71-4.93L483.71-4.93L483.71-4.93Q476.22-4.93 473.54-7.33L473.54-7.33L473.54-7.33Q470.85-9.73 470.85-13.57L470.85-13.57L470.85-32.45L470.85-32.45Q470.85-36.29 473.54-38.69L473.54-38.69L473.54-38.69Q476.22-41.09 483.71-41.09L483.71-41.09L483.71-41.09Q491.20-41.09 493.95-38.69L493.95-38.69L493.95-38.69Q496.70-36.29 496.70-32.45L496.70-32.45ZM471.49-32.45L471.49-13.57L471.49-13.57Q471.49-9.98 474.05-7.78L474.05-7.78L474.05-7.78Q476.61-5.57 483.71-5.57L483.71-5.57L483.71-5.57Q490.82-5.57 493.44-7.78L493.44-7.78L493.44-7.78Q496.06-9.98 496.06-13.57L496.06-13.57L496.06-32.45L496.06-32.45Q496.06-36.03 493.44-38.24L493.44-38.24L493.44-38.24Q490.82-40.45 483.71-40.45L483.71-40.45L483.71-40.45Q476.61-40.45 474.05-38.24L474.05-38.24L474.05-38.24Q471.49-36.03 471.49-32.45L471.49-32.45ZM478.46-14.40L478.46-14.40L478.46-31.62L478.46-31.62Q478.46-32.83 479.42-33.70L479.42-33.70L479.42-33.70Q480.38-34.56 483.84-34.56L483.84-34.56L483.84-34.56Q487.30-34.56 488.26-33.70L488.26-33.70L488.26-33.70Q489.22-32.83 489.22-31.62L489.22-31.62L489.22-14.40L489.22-14.40Q489.22-13.12 488.26-12.26L488.26-12.26L488.26-12.26Q487.30-11.39 483.84-11.39L483.84-11.39L483.84-11.39Q480.38-11.39 479.42-12.26L479.42-12.26L479.42-12.26Q478.46-13.12 478.46-14.40ZM479.10-31.62L479.10-31.62L479.10-14.40L479.10-14.40Q479.10-13.25 480.10-12.64L480.10-12.64L480.10-12.64Q481.09-12.03 483.84-12.03L483.84-12.03L483.84-12.03Q486.59-12.03 487.58-12.64L487.58-12.64L487.58-12.64Q488.58-13.25 488.58-14.40L488.58-14.40L488.58-31.62L488.58-31.62Q488.58-32.70 487.58-33.31L487.58-33.31L487.58-33.31Q486.59-33.92 483.84-33.92L483.84-33.92L483.84-33.92Q481.15-33.92 480.13-33.31L480.13-33.31L480.13-33.31Q479.10-32.70 479.10-31.62Z" fill="url(#editing-glowing-gradient)"></path></g></g><style>text {
  font-size: 64px;
  font-family: Arial Black;
  dominant-baseline: central;
  text-anchor: middle;
}</style></svg>